# xmcd
#
# Track frame offsets:
#	150
#	18145
#	35303
#	52000
#	74153
#	95767
#	116485
#	137534
#	156507
#	172684
#	188342
#	206394
#	223486
#	242028
#	259562
#	275701
#	295676
#
# Disc length: 4265 seconds
#
# Revision: 6
# Processed by: cddbd v1.5.2PL0 Copyright (c) Steve Scherf et al.
# Submitted via: EasyCDDAExtractor 15.3.0.1
#
DISCID=f910a711
DTITLE=Myriam Hernandez - Huellas
DYEAR=2004
DGENRE=Latin
TTITLE0=He Vuelto Por Ti
TTITLE1=No Te He Robado Nada
TTITLE2=Mio (Junto A Los Nocheros)
TTITLE3=Huele A Peligro
TTITLE4=La Fuerza Del Amor
TTITLE5=El Amor De Mi Vida (Junto A Los Tetas Y DJ Ju)
TTITLE6=Mañana
TTITLE7=Ese Hombre
TTITLE8=Se Me Fue
TTITLE9=Un Hombre Secreto
TTITLE10=Herida
TTITLE11=Te Pareces Tanto A El
TTITLE12=Peligroso Amor
TTITLE13=Eres
TTITLE14=El Hombre Que Yo Amo
TTITLE15=Ay Amor
TTITLE16=Llorare
EXTD=
EXTT0=
EXTT1=
EXTT2=
EXTT3=
EXTT4=
EXTT5=
EXTT6=
EXTT7=
EXTT8=
EXTT9=
EXTT10=
EXTT11=
EXTT12=
EXTT13=
EXTT14=
EXTT15=
EXTT16=
PLAYORDER=
